@startuml
skinparam classAttributeIconSize 0
AbstractProductA <|-- ConcreteProductA1
AbstractProductA <|-- ConcreteProductA2
AbstractProductB <|-- ConcreteProductB1
AbstractProductB <|-- ConcreteProductB2
AbstractFactory <|-- ConcreteFactory1
AbstractFactory <|-- ConcreteFactory2
ConcreteFactory1 ..>ConcreteProductA1
ConcreteFactory2 ..>ConcreteProductA2
ConcreteFactory2 ..>ConcreteProductB2
ConcreteFactory1 ..>ConcreteProductB1
abstract class AbstractProductA{
  + abstract void mothod()
}

abstract class AbstractProductB{
  + abstract void mothod()
}

class ConcreteProductA1{
  + void mothod();
}
class ConcreteProductA2{
  + void mothod();
}
class ConcreteProductB1{
  + void mothod();
}
class ConcreteProductB2{
  + void mothod();
}

abstract class AbstractFactory{
  + abstract AbstractProductA createProductA();
  + abstract AbstractProductB createProductA();
}

class ConcreteFactory1{
  +  AbstractProductA createProductA();
  +  AbstractProductB createProductA();
}

class ConcreteFactory2{
  +  AbstractProductA createProductA();
  +  AbstractProductB createProductA();
}
@enduml
